<svg width="60" height="60" viewBox="0 0 60 60" fill="none" xmlns="http://www.w3.org/2000/svg">
<circle cx="30" cy="30" r="29" stroke="white" stroke-width="2"/>
<path d="M20.1775 19.9999L22.5125 35.1699C22.5545 35.4723 22.7055 35.7488 22.937 35.9477C23.1686 36.1466 23.4648 36.2541 23.77 36.2499H37.5C37.7689 36.25 38.0307 36.1632 38.2464 36.0027C38.4621 35.8421 38.6203 35.6163 38.6975 35.3587L42.4475 22.8587C42.5034 22.672 42.5149 22.4749 42.4811 22.283C42.4473 22.0912 42.3691 21.9098 42.2528 21.7536C42.1365 21.5973 41.9852 21.4703 41.8111 21.3829C41.637 21.2955 41.4448 21.2499 41.25 21.2499H22.9L22.4875 18.5774C22.4458 18.2715 22.2916 17.992 22.055 17.7937C21.8246 17.5992 21.5315 17.4948 21.23 17.4999H18.75C18.5858 17.4999 18.4233 17.5323 18.2716 17.5951C18.12 17.6579 17.9822 17.75 17.8661 17.8661C17.75 17.9821 17.658 18.1199 17.5952 18.2716C17.5323 18.4232 17.5 18.5858 17.5 18.7499C17.5 18.9141 17.5323 19.0766 17.5952 19.2283C17.658 19.3799 17.75 19.5177 17.8661 19.6338C17.9822 19.7499 18.12 19.842 18.2716 19.9048C18.4233 19.9676 18.5858 19.9999 18.75 19.9999H20.1775ZM24.8225 33.7499L23.285 23.7499H39.57L36.57 33.7499H24.8225ZM27.5 39.9999C27.5 40.663 27.2366 41.2989 26.7678 41.7677C26.2989 42.2365 25.663 42.4999 25 42.4999C24.337 42.4999 23.7011 42.2365 23.2322 41.7677C22.7634 41.2989 22.5 40.663 22.5 39.9999C22.5 39.3369 22.7634 38.701 23.2322 38.2322C23.7011 37.7633 24.337 37.4999 25 37.4999C25.663 37.4999 26.2989 37.7633 26.7678 38.2322C27.2366 38.701 27.5 39.3369 27.5 39.9999ZM38.75 39.9999C38.75 40.663 38.4866 41.2989 38.0178 41.7677C37.5489 42.2365 36.913 42.4999 36.25 42.4999C35.587 42.4999 34.9511 42.2365 34.4822 41.7677C34.0134 41.2989 33.75 40.663 33.75 39.9999C33.75 39.3369 34.0134 38.701 34.4822 38.2322C34.9511 37.7633 35.587 37.4999 36.25 37.4999C36.913 37.4999 37.5489 37.7633 38.0178 38.2322C38.4866 38.701 38.75 39.3369 38.75 39.9999Z" fill="white"/>
</svg>
